<svg width="24" height="24" viewBox="0 0 24 24" fill="none" xmlns="http://www.w3.org/2000/svg">
<path d="M17.7995 6.60688C18.1343 6.92705 18.5808 7.10802 19.0412 7.0941C19.5156 7.12194 19.99 6.94098 20.3109 6.60688C20.6457 6.25886 20.8131 5.79948 20.7992 5.32617C20.8131 4.86679 20.6457 4.42133 20.3388 4.08723C20.0318 3.76705 19.6133 3.60001 19.0691 3.60001C18.6087 3.60001 18.1623 3.76705 17.8274 4.08723C17.4926 4.40741 17.3112 4.85287 17.3251 5.32617C17.3112 5.79948 17.4786 6.25886 17.7995 6.60688Z" fill="white"/>
<path d="M17.4786 8.45833V19.1773C17.4786 19.3165 17.5484 19.4 17.6879 19.4H20.4225C20.548 19.4 20.6039 19.3304 20.6039 19.1773V8.45833C20.6039 8.33305 20.548 8.26344 20.4225 8.26344H17.66C17.5344 8.26344 17.4786 8.31913 17.4786 8.45833Z" fill="white"/>
<path fill-rule="evenodd" clip-rule="evenodd" d="M6.31713 15.8641H11.5073L12.6513 19.1772C12.6792 19.2747 12.7769 19.3443 12.8746 19.3303H15.7905C15.9301 19.3303 15.9719 19.2607 15.9301 19.1076L10.8376 4.76928C10.8236 4.69968 10.7678 4.65792 10.6562 4.65792H7.04263C6.97287 4.67184 6.91706 4.74144 6.93101 4.81104C6.93101 5.1173 6.90311 5.42355 6.8473 5.71589C6.80776 5.83424 6.77522 5.94561 6.74473 6.04999C6.73218 6.09294 6.71998 6.1347 6.70778 6.17527L2.21524 19.0798C2.17338 19.2468 2.21524 19.3303 2.36871 19.3303H4.99169C5.11725 19.3443 5.22887 19.2607 5.25677 19.1355L6.31713 15.8641ZM10.6701 13.0382H7.12634C7.33562 12.4535 7.5449 11.7992 7.74023 11.0893C7.87844 10.6584 8.01129 10.2274 8.14212 9.80311C8.2226 9.54207 8.30231 9.28352 8.38202 9.02902C8.57735 8.43043 8.73082 7.83184 8.85639 7.23325H8.88429C8.93874 7.41949 8.99318 7.61438 9.05004 7.81793C9.09518 7.97952 9.14184 8.14656 9.19124 8.31906C9.30285 8.72276 9.42842 9.12646 9.56794 9.558C9.6377 9.77378 9.70397 9.98607 9.77025 10.1984C9.83652 10.4106 9.90279 10.6229 9.97255 10.8387C10.0981 11.2563 10.2237 11.66 10.3493 12.0359C10.4748 12.3978 10.5864 12.7458 10.6701 13.0382Z" fill="white"/>
</svg>
