<svg width="24" height="24" viewBox="0 0 24 24" fill="none" xmlns="http://www.w3.org/2000/svg">
<path d="M19.6419 15.1558C19.5156 15.1558 19.4044 15.263 19.2887 15.4971C17.982 18.1587 15.7251 20.0419 13.1136 20.0419C10.0938 20.0419 8.2237 17.3036 8.2237 13.5205C8.2237 7.11247 11.778 3.40731 14.8999 3.40731C16.3587 3.40731 17.2495 4.3283 17.2495 5.79372C17.2495 7.53306 16.2658 8.45389 16.2658 9.06745C16.2658 9.34283 16.4363 9.50957 16.7744 9.50957C18.1329 9.50957 19.7272 7.94167 19.7272 5.72654C19.7272 3.5114 17.8663 2 14.7445 2C9.585 2 4.99988 6.80488 4.99988 13.4532C4.99988 18.5993 7.92523 22 12.439 22C17.2297 22 19.9999 17.2118 19.9999 15.6577C19.9999 15.3135 19.8247 15.1558 19.6419 15.1558Z" fill="white"/>
</svg>
