<svg width="24" height="24" viewBox="0 0 24 24" fill="none" xmlns="http://www.w3.org/2000/svg">
<path d="M22 2V22H2V2H22ZM17.4199 11.127C15.6968 11.127 14.5938 12.2284 14.5938 13.6748C14.5939 15.2447 15.519 15.9872 16.9111 16.5801L17.3936 16.7871C18.2735 17.1718 18.7988 17.4061 18.7988 18.0674C18.7988 18.6192 18.2877 19.0185 17.4883 19.0186C16.5367 19.0186 15.9985 18.5225 15.585 17.8477L14.0166 18.7578C14.583 19.8765 15.7413 20.7305 17.5332 20.7305C19.3655 20.7303 20.7303 19.779 20.7305 18.043C20.7305 16.4324 19.8044 15.7154 18.165 15.0127L17.6826 14.8066C16.855 14.4484 16.4962 14.214 16.4961 13.6357C16.4961 13.1676 16.8548 12.8086 17.4199 12.8086C17.9739 12.8086 18.3304 13.0429 18.6611 13.6357L20.1641 12.6709C19.5286 11.5537 18.6465 11.127 17.4199 11.127ZM11.0449 11.2373V17.7949C11.0449 18.7587 10.6446 19.0068 10.0107 19.0068C9.34783 19.0068 9.07166 18.5522 8.76855 18.0146L7.19824 18.9648C7.65322 19.9273 8.54795 20.7266 10.0928 20.7266C11.8025 20.7266 12.9736 19.8172 12.9736 17.8203V11.2373H11.0449Z" fill="white"/>
</svg>
