<?xml version="1.0" encoding="UTF-8"?>
<svg id="Layer_2" data-name="Layer 2" xmlns="http://www.w3.org/2000/svg" viewBox="0 0 278.46 242.11">
  <defs>
    <style>
      .cls-1 {
        fill: #f5f5f5;
      }
    </style>
  </defs>
  <g id="Layer_1-2" data-name="Layer 1">
    <g>
      <path class="cls-1" d="M85.46,70.07v172c-38.11,1.25-72.93-26.53-82.49-63.01-14.51-55.34,25.93-107.73,82.49-108.99Z"/>
      <path class="cls-1" d="M172.46.07v77.5c-19.11,9.69-35.42,21.94-46.17,40.83-21.88,38.46-8.43,79.61,21.64,108.7l21.53,14.97h-73V67.57c0-1.77,2.08-9.9,2.72-12.28C107.64,23.42,139-1.46,172.46.07Z"/>
      <path class="cls-1" d="M245.46,242.07h-43V67.57c0-2.12,1.84-8.91,2.51-11.49,5.53-21.32,20.84-39.32,40.49-49.01v235Z"/>
      <path class="cls-1" d="M278.46.07v242h-25V4.57c7.26-3.67,16.72-4.63,25-4.5Z"/>
    </g>
  </g>
</svg>