<svg width="200" height="200" viewBox="0 0 200 200" fill="none" xmlns="http://www.w3.org/2000/svg">
<path d="M200.002 99.9997C200.002 113.137 197.363 126.146 192.237 138.283C187.111 150.42 179.598 161.449 170.127 170.738C160.655 180.027 149.41 187.396 137.035 192.424C125.893 196.95 114.03 199.499 102 199.962C100.152 200.033 99.2275 200.069 98.6142 199.478C98.001 198.888 98.001 197.938 98.001 196.039L98.001 138.942C98.001 137.077 94.9617 136.566 94.2363 138.284C89.1104 150.421 81.5973 161.449 72.126 170.738C62.6544 180.027 51.4093 187.396 39.0342 192.424C27.892 196.95 16.0291 199.499 3.99908 199.962C2.15068 200.033 1.22648 200.069 0.613238 199.478C-8.69369e-06 198.888 -8.65217e-06 197.938 -8.56913e-06 196.039L-6.54267e-06 149.679C-6.46634e-06 147.933 -6.42817e-06 147.059 0.489885 146.495C0.979776 145.931 1.89887 145.801 3.73706 145.541C7.59205 144.995 11.3716 143.981 14.9863 142.515C20.6885 140.203 25.8701 136.813 30.2344 132.54C34.5987 128.267 38.0609 123.193 40.4228 117.61C42.7847 112.027 44.0009 106.043 44.001 100.001C44.001 93.9576 42.7848 87.9734 40.4228 82.3903C38.0609 76.8072 34.5987 71.7338 30.2344 67.4606C25.87 63.1876 20.6885 59.7976 14.9863 57.485C11.3716 56.0191 7.59206 55.0057 3.73706 54.4597C1.89887 54.1994 0.979782 54.0693 0.48989 53.5051C-2.31412e-06 52.941 -2.27596e-06 52.0678 -2.19962e-06 50.3214L-1.73167e-07 3.9616C-9.01277e-08 2.06187 -4.86079e-08 1.11201 0.613246 0.521913C1.22649 -0.0681862 2.15069 -0.0326181 3.99909 0.0385181C16.0291 0.501497 27.892 3.0504 39.0342 7.57683C51.4094 12.6042 62.6544 19.973 72.126 29.2624C81.5975 38.5518 89.1104 49.5803 94.2363 61.7175C94.9617 63.4349 98.001 62.924 98.001 61.0597L98.001 3.9616C98.001 2.06188 98.001 1.11202 98.6142 0.521918C99.2275 -0.0681811 100.152 -0.0326143 102 0.0385192C114.03 0.501483 125.893 3.05032 137.035 7.57684C149.41 12.6042 160.655 19.9729 170.127 29.2624C179.598 38.5516 187.111 49.5796 192.237 61.7165C197.363 73.8536 200.002 86.8626 200.002 99.9997Z" fill="black"/>
</svg>
